<svg width="35" height="42" viewBox="0 0 35 42" fill="none" xmlns="http://www.w3.org/2000/svg">
<g id="Logout 2">
<path id="Vector" d="M6.64931 5.25C4.02797 5.25 1.875 7.4202 1.875 10.0625V31.9375C1.875 34.5798 4.02797 36.75 6.64931 36.75H22.2743C24.8956 36.75 27.0486 34.5798 27.0486 31.9375C27.0511 31.7636 27.0192 31.5909 26.9548 31.4295C26.8905 31.2681 26.795 31.1212 26.6738 30.9974C26.5527 30.8735 26.4083 30.7751 26.2491 30.708C26.0899 30.6409 25.9191 30.6063 25.7465 30.6063C25.574 30.6063 25.4031 30.6409 25.2439 30.708C25.0848 30.7751 24.9404 30.8735 24.8192 30.9974C24.6981 31.1212 24.6026 31.2681 24.5382 31.4295C24.4739 31.5909 24.442 31.7636 24.4444 31.9375C24.4444 33.1609 23.488 34.125 22.2743 34.125H6.64931C5.43557 34.125 4.47917 33.1609 4.47917 31.9375V10.0625C4.47917 8.83905 5.43557 7.875 6.64931 7.875H22.2743C23.488 7.875 24.4444 8.83905 24.4444 10.0625C24.442 10.2364 24.4739 10.4091 24.5382 10.5705C24.6026 10.7319 24.6981 10.8788 24.8192 11.0026C24.9404 11.1265 25.0848 11.2249 25.2439 11.292C25.4031 11.3591 25.574 11.3937 25.7465 11.3937C25.9191 11.3937 26.0899 11.3591 26.2491 11.292C26.4083 11.2249 26.5527 11.1265 26.6738 11.0026C26.795 10.8788 26.8905 10.7319 26.9548 10.5705C27.0192 10.4091 27.0511 10.2364 27.0486 10.0625C27.0486 7.4202 24.8956 5.25 22.2743 5.25H6.64931ZM25.733 13.5488C25.4738 13.5489 25.2206 13.6269 25.0057 13.7728C24.7908 13.9188 24.624 14.126 24.5266 14.3681C24.4292 14.6101 24.4056 14.876 24.4589 15.1316C24.5123 15.3872 24.64 15.621 24.8259 15.803L28.6796 19.6875H10.1215C9.94899 19.685 9.77768 19.7172 9.61757 19.782C9.45745 19.8469 9.31172 19.9432 9.18884 20.0653C9.06597 20.1874 8.96839 20.3329 8.90179 20.4934C8.8352 20.6539 8.8009 20.8261 8.8009 21C8.8009 21.1739 8.8352 21.3461 8.90179 21.5066C8.96839 21.6671 9.06597 21.8126 9.18884 21.9347C9.31172 22.0568 9.45745 22.1531 9.61757 22.218C9.77768 22.2828 9.94899 22.315 10.1215 22.3125H28.6796L24.8259 26.197C24.701 26.318 24.6012 26.4628 24.5325 26.6231C24.4637 26.7834 24.4274 26.9559 24.4257 27.1305C24.4239 27.3051 24.4567 27.4784 24.5222 27.64C24.5877 27.8017 24.6845 27.9486 24.807 28.072C24.9295 28.1955 25.0752 28.2931 25.2356 28.3591C25.396 28.4251 25.5678 28.4582 25.741 28.4564C25.9143 28.4547 26.0854 28.4181 26.2444 28.3488C26.4034 28.2795 26.5472 28.1789 26.6671 28.053L32.7435 21.928C32.9876 21.6818 33.1247 21.348 33.1247 21C33.1247 20.652 32.9876 20.3182 32.7435 20.072L26.6671 13.947C26.5458 13.821 26.4006 13.7209 26.2401 13.6525C26.0796 13.5841 25.9072 13.5488 25.733 13.5488Z" fill="#B6B6B6"/>
</g>
</svg>
