<svg width="39" height="45" viewBox="0 0 39 45" fill="none" xmlns="http://www.w3.org/2000/svg">
<g id="Logout 1">
<path id="Vector" d="M7.4093 5.625C4.48838 5.625 2.08936 7.95021 2.08936 10.7812V34.2188C2.08936 37.0498 4.48838 39.375 7.4093 39.375H24.82C27.7409 39.375 30.1399 37.0498 30.1399 34.2188C30.1427 34.0324 30.1071 33.8474 30.0355 33.6745C29.9638 33.5015 29.8573 33.3442 29.7223 33.2115C29.5873 33.0787 29.4265 32.9734 29.2491 32.9014C29.0717 32.8295 28.8813 32.7925 28.6891 32.7925C28.4968 32.7925 28.3064 32.8295 28.129 32.9014C27.9516 32.9734 27.7908 33.0787 27.6558 33.2115C27.5208 33.3442 27.4144 33.5015 27.3427 33.6745C27.271 33.8474 27.2354 34.0324 27.2382 34.2188C27.2382 35.5296 26.1725 36.5625 24.82 36.5625H7.4093C6.05684 36.5625 4.99114 35.5296 4.99114 34.2188V10.7812C4.99114 9.47041 6.05684 8.4375 7.4093 8.4375H24.82C26.1725 8.4375 27.2382 9.47041 27.2382 10.7812C27.2354 10.9676 27.271 11.1526 27.3427 11.3255C27.4144 11.4985 27.5208 11.6558 27.6558 11.7885C27.7908 11.9213 27.9516 12.0266 28.129 12.0986C28.3064 12.1705 28.4968 12.2075 28.6891 12.2075C28.8813 12.2075 29.0717 12.1705 29.2491 12.0986C29.4265 12.0266 29.5873 11.9213 29.7223 11.7885C29.8573 11.6558 29.9638 11.4985 30.0355 11.3255C30.1071 11.1526 30.1427 10.9676 30.1399 10.7812C30.1399 7.95021 27.7409 5.625 24.82 5.625H7.4093ZM28.6739 14.5166C28.3852 14.5167 28.103 14.6002 27.8636 14.7566C27.6241 14.913 27.4382 15.135 27.3297 15.3944C27.2211 15.6537 27.1949 15.9385 27.2543 16.2124C27.3137 16.4863 27.4561 16.7368 27.6632 16.9318L31.9573 21.0938H11.2783C11.0861 21.0911 10.8952 21.1255 10.7168 21.195C10.5384 21.2645 10.376 21.3677 10.2391 21.4985C10.1021 21.6294 9.99342 21.7853 9.91921 21.9572C9.845 22.1291 9.80679 22.3136 9.80679 22.5C9.80679 22.6864 9.845 22.8709 9.91921 23.0428C9.99342 23.2147 10.1021 23.3706 10.2391 23.5015C10.376 23.6323 10.5384 23.7355 10.7168 23.805C10.8952 23.8745 11.0861 23.9089 11.2783 23.9062H31.9573L27.6632 28.0682C27.524 28.1978 27.4128 28.353 27.3362 28.5248C27.2597 28.6965 27.2192 28.8813 27.2172 29.0684C27.2153 29.2555 27.2518 29.4411 27.3248 29.6143C27.3978 29.7875 27.5057 29.9449 27.6422 30.0772C27.7787 30.2095 27.941 30.3141 28.1197 30.3848C28.2984 30.4555 28.4899 30.4909 28.6829 30.489C28.876 30.4871 29.0667 30.4479 29.2439 30.3737C29.4211 30.2995 29.5812 30.1917 29.7149 30.0568L36.4857 23.4943C36.7577 23.2305 36.9105 22.8729 36.9105 22.5C36.9105 22.1271 36.7577 21.7695 36.4857 21.5057L29.7149 14.9432C29.5796 14.8083 29.4178 14.7009 29.239 14.6277C29.0602 14.5544 28.8681 14.5166 28.6739 14.5166Z" fill="#DBA833"/>
</g>
</svg>
