<svg width="107" height="107" viewBox="0 0 107 107" fill="none" xmlns="http://www.w3.org/2000/svg">
<g id="central_heating">
<path id="Subtract" fill-rule="evenodd" clip-rule="evenodd" d="M51.854 87.0141L51.8544 87.0133C51.8569 87.0082 51.8594 87.0031 51.862 86.998C51.8593 87.0033 51.8566 87.0087 51.854 87.0141ZM88.8908 87.0174L88.8928 87.0133C88.8954 87.0082 88.8979 87.0031 88.9004 86.998C88.8972 87.0044 88.894 87.0109 88.8908 87.0174ZM89.6991 29.7789C89.6991 29.7788 89.6991 29.7788 89.6991 29.7788C89.6984 29.7768 89.6977 29.7747 89.697 29.7727C89.6977 29.7747 89.6984 29.7768 89.6991 29.7789ZM88.9951 28.0408C88.9951 28.0408 88.9951 28.0408 88.9951 28.0408C88.9931 28.0367 88.9911 28.0326 88.9891 28.0284C88.9911 28.0326 88.9931 28.0367 88.9951 28.0408ZM19.7791 24.0317L20.5282 25.0814C23.1375 30.3872 23.1614 36.4547 20.6001 41.7744L20.4892 41.8853L15.8387 50.7877L15.8315 50.8021C13.6028 55.241 13.6028 59.6039 15.8315 64.0428L15.8387 64.0572L20.9084 73.762H20.9713C23.0139 78.5687 23.0139 83.9889 20.9713 88.7956H20.8971L13.0377 104.146L9.36792 102.18L18.2011 85.0661H17.7133C18.7005 81.5768 18.3217 78.0694 16.5769 74.5941L16.5697 74.5798L12.069 65.9642C9.35286 60.5354 9.35527 54.2936 12.0762 48.8662L12.2883 48.4432V48.3388L16.5669 40.2706L16.5769 40.2507C18.8056 35.8118 18.8056 31.3203 16.5769 26.8814L16.5374 26.8028L15.7533 25.5329L11.09 15.9976L5.86523 18.4622L8.09246 3.31702L20.9441 11.3493L14.9289 14.2532L19.7791 24.0317ZM57.9304 26.0492H58.0105C60.1694 31.1162 60.0454 36.7755 57.6385 41.7744L57.5277 41.8853L52.8772 50.7877L52.8699 50.8021C50.6413 55.241 50.6413 59.6039 52.8699 64.0428L52.8772 64.0572L57.9468 73.762H58.0098C60.0524 78.5687 60.0524 83.9889 58.0098 88.7956H57.9356L50.0761 104.146L46.4064 102.18L55.2395 85.0661H54.7517C55.739 81.5768 55.3602 78.0694 53.6154 74.5941L53.6081 74.5798L49.1075 65.9642C46.3913 60.5354 46.3937 54.2936 49.1147 48.8662L49.3268 48.4432V48.3388L53.6054 40.2706L53.6154 40.2507C55.3602 36.7755 55.739 33.268 54.7517 29.7788H55.2541L48.0835 16.0189L42.9037 18.4622L45.1309 3.31702L57.9826 11.3493L51.9509 14.2611L57.9304 26.0492ZM94.9689 26.0492H95.049C97.2079 31.1162 97.0839 36.7755 94.677 41.7744L94.5661 41.8853L89.9156 50.7877L89.9084 50.8021C87.6797 55.241 87.6797 59.6039 89.9084 64.0428L89.9156 64.0572L94.9853 73.762H95.0482C97.0909 78.5687 97.0909 83.9889 95.0482 88.7956H94.9741L87.1146 104.146L83.4448 102.18L92.278 85.0661H91.7902C92.7775 81.5768 92.3986 78.0694 90.6538 74.5941L90.6466 74.5798L86.1459 65.9642C83.4298 60.5354 83.4322 54.2936 86.1531 48.8662L86.3652 48.4432V48.3388L90.6438 40.2706L90.6538 40.2507C92.3986 36.7755 92.7775 33.268 91.7902 29.7788H92.2926L85.1219 16.0189L79.9422 18.4622L82.1694 3.31702L95.021 11.3493L88.9894 14.2611L94.9689 26.0492Z" fill="#DBA833"/>
</g>
</svg>
