<svg width="136" height="148" viewBox="0 0 136 148" fill="none" xmlns="http://www.w3.org/2000/svg">
<path d="M50.267 26.0004C49.3084 26.0154 48.3949 26.4103 47.7272 27.0985C47.0594 27.7866 46.6921 28.7116 46.7059 29.6704C46.7059 43.2385 42.0507 49.1219 36.8421 54.6206C34.2379 57.3699 31.4124 59.9238 29.0746 63.1713C26.7367 66.4188 25 70.5039 25 75.5004C25 79.9764 26.667 83.6288 29.3195 85.7377C31.972 87.8466 35.0073 88.4898 37.7466 89.026C40.4858 89.5623 43.0427 89.967 44.9018 90.7079C46.7608 91.4488 47.8463 92.2417 48.6796 94.1188L48.7173 94.1989L48.7549 94.2743C51.9601 100.652 59.1968 103.263 66 103.263C72.8032 103.263 80.0399 100.652 83.2451 94.2743L83.2827 94.1989L83.3204 94.1188C84.1537 92.2417 85.2392 91.4488 87.0982 90.7079C88.9573 89.967 91.5142 89.5623 94.2534 89.026C96.9927 88.4898 100.028 87.8466 102.68 85.7377C105.333 83.6288 107 79.9764 107 75.5004C107 70.5039 105.263 66.4188 102.925 63.1713C100.588 59.9238 97.7621 57.3699 95.1579 54.6206C89.9493 49.1219 85.2941 43.2385 85.2941 29.6704C85.3009 29.191 85.2123 28.715 85.0336 28.27C84.8548 27.8251 84.5894 27.4202 84.2528 27.0787C83.9162 26.7373 83.5151 26.4662 83.0728 26.2811C82.6305 26.096 82.1559 26.0007 81.6765 26.0007C81.197 26.0007 80.7224 26.096 80.2801 26.2811C79.8378 26.4662 79.4367 26.7373 79.1001 27.0787C78.7635 27.4202 78.4981 27.8251 78.3194 28.27C78.1406 28.715 78.052 29.191 78.0588 29.6704C78.0588 45.0476 84.2566 53.6368 89.901 59.5956C92.7232 62.575 95.3242 64.996 97.0562 67.4019C98.7882 69.8078 99.7647 72.0545 99.7647 75.5004C99.7647 78.4898 99.1303 79.3171 98.1773 80.0749C97.2242 80.8326 95.3461 81.4405 92.8639 81.9264C90.3817 82.4123 87.4113 82.7988 84.4227 83.9898C81.4341 85.1809 78.3578 87.4647 76.7069 91.1837L76.7823 91.0236C75.3086 93.9561 70.8698 96.0268 66 96.0268C61.1302 96.0268 56.6914 93.9561 55.2177 91.0236L55.2931 91.1837C53.6422 87.4647 50.5659 85.1809 47.5773 83.9898C44.5887 82.7988 41.6183 82.4123 39.1361 81.9264C36.6539 81.4405 34.7758 80.8326 33.8227 80.0749C32.8696 79.3171 32.2353 78.4898 32.2353 75.5004C32.2353 72.0545 33.2118 69.8078 34.9438 67.4019C36.6758 64.996 39.2768 62.575 42.099 59.5956C47.7434 53.6368 53.9412 45.0476 53.9412 29.6704C53.9481 29.1862 53.8578 28.7054 53.6755 28.2567C53.4933 27.808 53.2229 27.4004 52.8802 27.0582C52.5376 26.716 52.1297 26.446 51.6809 26.2643C51.232 26.0826 50.7512 25.9929 50.267 26.0004ZM38.2129 98.4153C37.2715 98.4291 36.3725 98.8094 35.7069 99.4753L28.4716 106.712C28.1244 107.045 27.8472 107.444 27.6563 107.886C27.4653 108.328 27.3645 108.804 27.3596 109.285C27.3547 109.766 27.4459 110.244 27.6278 110.69C27.8097 111.135 28.0787 111.54 28.4191 111.881C28.7594 112.221 29.1642 112.49 29.6099 112.672C30.0555 112.854 30.5329 112.945 31.0142 112.94C31.4955 112.935 31.9709 112.834 32.4128 112.643C32.8546 112.452 33.2539 112.175 33.5872 111.828L34.6471 110.768V121.33C34.6403 121.81 34.7288 122.286 34.9076 122.731C35.0864 123.176 35.3518 123.581 35.6884 123.922C36.025 124.263 36.4261 124.535 36.8683 124.72C37.3106 124.905 37.7853 125 38.2647 125C38.7441 125 39.2188 124.905 39.6611 124.72C40.1033 124.535 40.5044 124.263 40.841 123.922C41.1777 123.581 41.443 123.176 41.6218 122.731C41.8006 122.286 41.8891 121.81 41.8824 121.33V110.768L42.9422 111.828C43.2756 112.175 43.6748 112.452 44.1167 112.643C44.5585 112.834 45.0339 112.935 45.5152 112.94C45.9965 112.945 46.4739 112.854 46.9196 112.672C47.3652 112.49 47.77 112.221 48.1103 111.881C48.4507 111.54 48.7197 111.135 48.9016 110.69C49.0835 110.244 49.1747 109.766 49.1698 109.285C49.1649 108.804 49.0641 108.328 48.8731 107.886C48.6822 107.444 48.405 107.045 48.0578 106.712L40.8225 99.4753C40.4805 99.1331 40.0733 98.863 39.6251 98.6809C39.1768 98.4989 38.6966 98.4086 38.2129 98.4153ZM93.6835 98.4153C92.7421 98.4291 91.8431 98.8094 91.1775 99.4753L83.9422 106.712C83.595 107.045 83.3178 107.444 83.1269 107.886C82.9359 108.328 82.8351 108.804 82.8302 109.285C82.8253 109.766 82.9165 110.244 83.0984 110.69C83.2803 111.135 83.5493 111.54 83.8897 111.881C84.23 112.221 84.6348 112.49 85.0804 112.672C85.526 112.854 86.0035 112.945 86.4848 112.94C86.9661 112.935 87.4415 112.834 87.8833 112.643C88.3252 112.452 88.7244 112.175 89.0578 111.828L90.1176 110.768V121.33C90.1109 121.81 90.1994 122.286 90.3782 122.731C90.557 123.176 90.8223 123.581 91.1589 123.922C91.4955 124.263 91.8966 124.535 92.3389 124.72C92.7812 124.905 93.2559 125 93.7353 125C94.2147 125 94.6894 124.905 95.1317 124.72C95.5739 124.535 95.975 124.263 96.3116 123.922C96.6482 123.581 96.9136 123.176 97.0924 122.731C97.2712 122.286 97.3597 121.81 97.3529 121.33V110.768L98.4128 111.828C98.7461 112.175 99.1454 112.452 99.5872 112.643C100.029 112.834 100.505 112.935 100.986 112.94C101.467 112.945 101.945 112.854 102.39 112.672C102.836 112.49 103.241 112.221 103.581 111.881C103.921 111.54 104.19 111.135 104.372 110.69C104.554 110.244 104.645 109.766 104.64 109.285C104.636 108.804 104.535 108.328 104.344 107.886C104.153 107.444 103.876 107.045 103.528 106.712L96.2931 99.4753C95.9511 99.1331 95.5439 98.863 95.0957 98.6809C94.6474 98.4989 94.1672 98.4086 93.6835 98.4153Z" fill="#DBA833"/>
<path fill-rule="evenodd" clip-rule="evenodd" d="M47.7059 29.6632V29.6704C47.7059 36.5742 46.5203 41.5872 44.6319 45.5976C42.7471 49.6003 40.1906 52.5398 37.5681 55.3083C36.8584 56.0576 36.1449 56.7808 35.4371 57.4984C33.4797 59.4827 31.5646 61.424 29.8861 63.7556C27.6466 66.8664 26 70.7514 26 75.5004C26 79.7374 27.5751 83.0732 29.9418 84.9549C32.3824 86.8953 35.1906 87.5067 37.9387 88.0447C38.3886 88.1328 38.8396 88.2181 39.2878 88.303C41.4926 88.7205 43.633 89.1258 45.272 89.779C46.2469 90.1675 47.1 90.6004 47.8293 91.2307C48.5672 91.8686 49.1258 92.6624 49.5889 93.7027L49.6171 93.7625L49.6485 93.8252C52.6135 99.7256 59.3874 102.263 66 102.263C72.6126 102.263 79.3865 99.7256 82.3515 93.8252L82.3829 93.7625L82.411 93.7027C82.8742 92.6625 83.4328 91.8686 84.1707 91.2307C84.9 90.6004 85.7531 90.1675 86.728 89.779C88.367 89.1258 90.5074 88.7205 92.7121 88.303C93.1604 88.2181 93.6114 88.1328 94.0613 88.0447C96.8094 87.5067 99.6176 86.8953 102.058 84.9549C104.425 83.0732 106 79.7374 106 75.5004C106 70.7514 104.353 66.8664 102.114 63.7556C100.435 61.424 98.5203 59.4827 96.5629 57.4984C95.8551 56.7808 95.1416 56.0576 94.4319 55.3083C91.8094 52.5398 89.2529 49.6003 87.3681 45.5976C85.4797 41.5872 84.2941 36.5742 84.2941 29.6704V29.6563C84.299 29.3093 84.235 28.9648 84.1057 28.6429C83.9763 28.3209 83.7842 28.0278 83.5407 27.7808C83.2971 27.5337 83.0069 27.3375 82.6868 27.2036C82.3668 27.0697 82.0234 27.0007 81.6765 27.0007C81.3296 27.0007 80.9861 27.0697 80.6661 27.2036C80.3461 27.3375 80.0558 27.5337 79.8123 27.7808C79.5687 28.0278 79.3766 28.3209 79.2473 28.6429C79.1179 28.9648 79.0538 29.3093 79.0587 29.6563L79.0589 29.6704C79.0589 44.7135 85.0961 53.0689 90.627 58.9079C91.3707 59.693 92.1107 60.4502 92.8298 61.1861C94.7736 63.1751 96.5653 65.0084 97.8678 66.8177C99.6964 69.3578 100.765 71.8045 100.765 75.5004C100.765 77.0486 100.603 78.1539 100.253 79.0049C99.8857 79.8985 99.3467 80.4227 98.7996 80.8576C98.1924 81.3404 97.3603 81.7264 96.4176 82.0488C95.4611 82.3759 94.3234 82.6596 93.056 82.9077C92.5603 83.0048 92.0546 83.0967 91.5403 83.1901C89.3995 83.5791 87.1113 83.9948 84.7929 84.9188C82.0216 86.0232 79.2193 88.1071 77.6847 91.4482L77.6871 91.4493L77.6118 91.6095L77.6063 91.607C76.7172 93.2766 75.0634 94.6128 73.0861 95.5317C71.0427 96.4814 68.5705 97.0268 66 97.0268C63.4295 97.0268 60.9573 96.4814 58.9139 95.5317C56.9366 94.6128 55.2828 93.2766 54.3937 91.607L54.3882 91.6095L54.3129 91.4493L54.3153 91.4482C52.7807 88.107 49.9784 86.0232 47.2071 84.9188C44.8887 83.9948 42.6005 83.5791 40.4597 83.1901C39.9454 83.0967 39.4397 83.0048 38.944 82.9077C37.6766 82.6596 36.5389 82.3759 35.5824 82.0488C34.6397 81.7264 33.8076 81.3404 33.2004 80.8576C32.6533 80.4227 32.1143 79.8985 31.7468 79.0049C31.3967 78.1539 31.2353 77.0486 31.2353 75.5004C31.2353 71.8045 32.3036 69.3578 34.1322 66.8177C35.4347 65.0084 37.2264 63.1751 39.1702 61.1861C39.8893 60.4502 40.6293 59.693 41.373 58.9079C46.9039 53.0689 52.9412 44.7135 52.9412 29.6704V29.6632L52.9413 29.6561C52.9463 29.3056 52.8809 28.9577 52.7491 28.633C52.6172 28.3083 52.4215 28.0134 52.1735 27.7657C51.9256 27.5181 51.6305 27.3227 51.3057 27.1912C50.9809 27.0598 50.633 26.9948 50.2826 27.0003L50.267 26.0004C50.7512 25.9929 51.232 26.0826 51.6809 26.2643C52.1297 26.446 52.5376 26.716 52.8802 27.0582C53.2228 27.4004 53.4933 27.808 53.6755 28.2567C53.8578 28.7054 53.9481 29.1862 53.9412 29.6704C53.9412 45.0476 47.7434 53.6368 42.099 59.5956C41.3222 60.4157 40.5621 61.1935 39.8322 61.9404C37.9107 63.9067 36.1991 65.6583 34.9438 67.4019C33.2118 69.8078 32.2353 72.0545 32.2353 75.5004C32.2353 78.4898 32.8696 79.3171 33.8227 80.0749C34.7758 80.8326 36.6539 81.4405 39.1361 81.9264C39.6077 82.0187 40.0969 82.1074 40.6005 82.1987C42.7477 82.5882 45.1565 83.0251 47.5773 83.9898C50.5193 85.1623 53.5462 87.3937 55.2147 91.0106C55.2165 91.0145 55.2183 91.0184 55.2201 91.0224C55.2201 91.0223 55.2201 91.0224 55.2201 91.0224C55.2289 91.0415 55.2377 91.0607 55.2465 91.08C55.2639 91.1136 55.2817 91.1471 55.2999 91.1806C55.2998 91.1805 55.2999 91.1806 55.2999 91.1806C55.3016 91.1838 55.3034 91.1871 55.3052 91.1903C56.8608 94.0343 61.223 96.0268 66 96.0268C70.7769 96.0268 75.1392 94.0343 76.6948 91.1903C76.6966 91.1871 76.6983 91.1839 76.7 91.1807C76.7 91.1807 76.7001 91.1806 76.7 91.1807C76.7182 91.1473 76.7361 91.1136 76.7535 91.08C76.7622 91.0607 76.771 91.0416 76.7798 91.0224C76.7798 91.0224 76.7798 91.0224 76.7798 91.0224C76.7816 91.0185 76.7835 91.0145 76.7853 91.0106C78.4538 87.3937 81.4807 85.1623 84.4227 83.9898C86.8435 83.0251 89.2523 82.5882 91.3995 82.1987C91.9031 82.1074 92.3923 82.0187 92.8639 81.9264C95.3461 81.4405 97.2242 80.8326 98.1773 80.0749C99.1304 79.3171 99.7647 78.4898 99.7647 75.5004C99.7647 72.0545 98.7882 69.8078 97.0562 67.4019C95.8009 65.6583 94.0892 63.9067 92.1677 61.9403C91.4379 61.1935 90.6778 60.4157 89.901 59.5956C84.2566 53.6368 78.0588 45.0476 78.0588 29.6704C78.052 29.191 78.1406 28.715 78.3194 28.27C78.4981 27.8251 78.7635 27.4202 79.1001 27.0787C79.4367 26.7373 79.8378 26.4662 80.2801 26.2811C80.7224 26.096 81.197 26.0007 81.6765 26.0007C82.1559 26.0007 82.6305 26.096 83.0728 26.2811C83.5151 26.4662 83.9162 26.7373 84.2528 27.0787C84.5894 27.4202 84.8548 27.8251 85.0336 28.27C85.2123 28.715 85.3009 29.191 85.2941 29.6704C85.2941 43.2385 89.9493 49.1219 95.1579 54.6206C95.8377 55.3383 96.5327 56.0428 97.2301 56.7497C99.2041 58.7506 101.198 60.7716 102.925 63.1713C105.263 66.4188 107 70.5039 107 75.5004C107 79.9764 105.333 83.6288 102.68 85.7377C100.028 87.8466 96.9927 88.4898 94.2534 89.026C93.7841 89.1179 93.3201 89.2059 92.8641 89.2924C90.6585 89.7108 88.6388 90.094 87.0982 90.7079C85.2392 91.4488 84.1537 92.2417 83.3204 94.1188L83.2827 94.1989L83.2451 94.2743C80.0399 100.652 72.8032 103.263 66 103.263C59.1968 103.263 51.9601 100.652 48.7549 94.2743L48.7173 94.1989L48.6796 94.1188C47.8463 92.2417 46.7608 91.4488 44.9018 90.7079C43.3612 90.094 41.3415 89.7108 39.1359 89.2924C38.6799 89.2059 38.2159 89.1179 37.7466 89.026C35.0073 88.4898 31.972 87.8466 29.3195 85.7377C26.667 83.6288 25 79.9764 25 75.5004C25 70.5039 26.7367 66.4188 29.0746 63.1713C30.8021 60.7716 32.7959 58.7506 34.7699 56.7497C35.4673 56.0427 36.1623 55.3383 36.8421 54.6206C42.0507 49.1219 46.7059 43.2385 46.7059 29.6704C46.6921 28.7116 47.0595 27.7866 47.7272 27.0985C48.3949 26.4103 49.3084 26.0154 50.267 26.0004L50.2826 27.0003C49.589 27.0112 48.928 27.2969 48.4448 27.7948C47.9617 28.2928 47.6958 28.9622 47.7058 29.6561L47.7059 29.6632ZM40.8225 99.4753C40.4805 99.1331 40.0733 98.863 39.6251 98.6809C39.1768 98.4989 38.6966 98.4086 38.2129 98.4153C37.2715 98.4291 36.3725 98.8094 35.7069 99.4753L28.4716 106.712C28.1244 107.045 27.8472 107.444 27.6563 107.886C27.4653 108.328 27.3645 108.804 27.3596 109.285C27.3547 109.766 27.4459 110.244 27.6278 110.69C27.8097 111.135 28.0787 111.54 28.4191 111.881C28.7594 112.221 29.1642 112.49 29.6099 112.672C30.0555 112.854 30.5329 112.945 31.0142 112.94C31.4955 112.935 31.9709 112.834 32.4128 112.643C32.8546 112.452 33.2538 112.175 33.5872 111.828L34.6471 110.768V121.33C34.6403 121.81 34.7288 122.286 34.9076 122.731C35.0864 123.176 35.3518 123.581 35.6884 123.922C36.025 124.263 36.4261 124.535 36.8683 124.72C37.3106 124.905 37.7853 125 38.2647 125C38.7441 125 39.2188 124.905 39.6611 124.72C40.1033 124.535 40.5044 124.263 40.841 123.922C41.1777 123.581 41.443 123.176 41.6218 122.731C41.8006 122.286 41.8891 121.81 41.8824 121.33V110.768L42.9422 111.828C43.2756 112.175 43.6748 112.452 44.1167 112.643C44.5585 112.834 45.0339 112.935 45.5152 112.94C45.9965 112.945 46.4739 112.854 46.9196 112.672C47.3652 112.49 47.77 112.221 48.1103 111.881C48.4507 111.54 48.7197 111.135 48.9016 110.69C49.0835 110.244 49.1747 109.766 49.1698 109.285C49.1649 108.804 49.0641 108.328 48.8731 107.886C48.6822 107.444 48.405 107.045 48.0578 106.712L40.8225 99.4753ZM38.2275 99.4152C38.5773 99.4104 38.9246 99.4758 39.2487 99.6074C39.5731 99.7392 39.8677 99.9346 40.1152 100.182L47.3578 107.426L47.3652 107.433C47.6164 107.674 47.817 107.963 47.9552 108.283C48.0933 108.603 48.1663 108.947 48.1699 109.295C48.1734 109.644 48.1074 109.989 47.9758 110.312C47.8441 110.634 47.6495 110.927 47.4032 111.173C47.1569 111.42 46.864 111.614 46.5415 111.746C46.2191 111.878 45.8736 111.944 45.5254 111.94C45.1771 111.937 44.8331 111.864 44.5134 111.725C44.1937 111.587 43.9048 111.387 43.6636 111.135L43.6566 111.128L40.8824 108.353L40.8823 121.33L40.8825 121.344C40.8874 121.691 40.8233 122.036 40.6939 122.358C40.5645 122.68 40.3725 122.973 40.1289 123.22C39.8853 123.467 39.5951 123.663 39.2751 123.797C38.955 123.931 38.6116 124 38.2647 124C37.9178 124 37.5744 123.931 37.2543 123.797C36.9343 123.663 36.6441 123.467 36.4005 123.22C36.1569 122.973 35.9649 122.68 35.8355 122.358C35.7061 122.036 35.6421 121.691 35.647 121.344L35.6471 108.353L32.8729 111.128L32.8658 111.135C32.6246 111.387 32.3357 111.587 32.016 111.725C31.6963 111.864 31.3522 111.937 31.004 111.94C30.6558 111.944 30.3103 111.878 29.9879 111.746C29.6654 111.614 29.3725 111.42 29.1262 111.173C28.88 110.927 28.6853 110.634 28.5536 110.312C28.422 109.989 28.356 109.644 28.3595 109.295C28.3631 108.947 28.4361 108.603 28.5743 108.283C28.7124 107.963 28.913 107.674 29.1643 107.433L29.1716 107.426L36.4141 100.182C36.8956 99.7006 37.5466 99.4254 38.2275 99.4152ZM91.8847 100.182L84.6422 107.426L84.6348 107.433C84.3836 107.674 84.183 107.963 84.0448 108.283C83.9067 108.603 83.8337 108.947 83.8301 109.295C83.8266 109.644 83.8926 109.989 84.0242 110.312C84.1559 110.634 84.3505 110.927 84.5968 111.173C84.8431 111.42 85.136 111.614 85.4585 111.746C85.7809 111.878 86.1264 111.944 86.4746 111.94C86.8228 111.937 87.1669 111.864 87.4866 111.725C87.8063 111.587 88.0952 111.387 88.3364 111.135L88.3434 111.128L91.1176 108.353V121.344C91.1127 121.691 91.1767 122.036 91.3061 122.358C91.4355 122.68 91.6275 122.973 91.8711 123.22C92.1147 123.467 92.4049 123.663 92.7249 123.797C93.045 123.931 93.3884 124 93.7353 124C94.0822 124 94.4256 123.931 94.7457 123.797C95.0657 123.663 95.3559 123.467 95.5995 123.22C95.8431 122.973 96.0351 122.68 96.1645 122.358C96.2939 122.036 96.3579 121.691 96.353 121.344L96.3528 121.33L96.3529 108.353L99.1271 111.128L99.1342 111.135C99.3754 111.387 99.6643 111.587 99.984 111.725C100.304 111.864 100.648 111.937 100.996 111.94C101.344 111.944 101.69 111.878 102.012 111.746C102.335 111.614 102.627 111.42 102.874 111.173C103.12 110.927 103.315 110.634 103.446 110.312C103.578 109.989 103.644 109.644 103.64 109.295C103.637 108.947 103.564 108.603 103.426 108.283C103.288 107.963 103.087 107.674 102.836 107.433L102.828 107.426L95.5859 100.182C95.3384 99.9348 95.0436 99.7392 94.7193 99.6074C94.3952 99.4758 94.0479 99.4104 93.6981 99.4152M96.2931 99.4753C95.9511 99.1331 95.5439 98.863 95.0957 98.6809C94.6474 98.4989 94.1672 98.4086 93.6835 98.4153C92.7421 98.4291 91.8431 98.8094 91.1775 99.4753L83.9422 106.712C83.595 107.045 83.3178 107.444 83.1269 107.886C82.9359 108.328 82.8351 108.804 82.8302 109.285C82.8253 109.766 82.9165 110.244 83.0984 110.69C83.2803 111.135 83.5493 111.54 83.8897 111.881C84.23 112.221 84.6348 112.49 85.0804 112.672C85.526 112.854 86.0035 112.945 86.4848 112.94C86.9661 112.935 87.4415 112.834 87.8833 112.643C88.3252 112.452 88.7244 112.175 89.0578 111.828L90.1176 110.768V121.33C90.1109 121.81 90.1994 122.286 90.3782 122.731C90.557 123.176 90.8223 123.581 91.1589 123.922C91.4955 124.263 91.8966 124.535 92.3389 124.72C92.7812 124.905 93.2559 125 93.7353 125C94.2147 125 94.6894 124.905 95.1317 124.72C95.5739 124.535 95.975 124.263 96.3116 123.922C96.6482 123.581 96.9136 123.176 97.0924 122.731C97.2711 122.286 97.3597 121.81 97.3529 121.33V110.768L98.4128 111.828C98.7461 112.175 99.1454 112.452 99.5872 112.643C100.029 112.834 100.505 112.935 100.986 112.94C101.467 112.945 101.945 112.854 102.39 112.672C102.836 112.49 103.241 112.221 103.581 111.881C103.921 111.54 104.19 111.135 104.372 110.69C104.554 110.244 104.645 109.766 104.64 109.285C104.636 108.804 104.535 108.328 104.344 107.886C104.153 107.444 103.876 107.045 103.528 106.712L96.2931 99.4753ZM91.8847 100.182C92.3662 99.7006 93.0172 99.4254 93.6981 99.4152L91.8847 100.182Z" fill="white"/>
<path fill-rule="evenodd" clip-rule="evenodd" d="M134.61 26.8114C135.265 27.7005 135.075 28.9526 134.186 29.608L9.58622 121.445C8.69707 122.101 7.44501 121.911 6.78965 121.022C6.1343 120.133 6.32382 118.881 7.21297 118.226L131.813 26.3881C132.702 25.7327 133.954 25.9222 134.61 26.8114Z" fill="white"/>
<path fill-rule="evenodd" clip-rule="evenodd" d="M1.04135 21.1524C1.89932 20.0706 3.4718 19.8892 4.55359 20.7472L120.554 112.747C121.635 113.605 121.817 115.178 120.959 116.259C120.101 117.341 118.528 117.523 117.447 116.665L1.44661 24.6647C0.364828 23.8067 0.183388 22.2342 1.04135 21.1524Z" fill="#DBA833"/>
<path fill-rule="evenodd" clip-rule="evenodd" d="M1.4333 18.4628C2.11983 17.5975 3.37783 17.4526 4.24314 18.1391L125.243 114.139C126.108 114.826 126.253 116.084 125.567 116.949C124.88 117.814 123.622 117.959 122.757 117.273L1.75702 21.2727C0.891708 20.5861 0.746776 19.3281 1.4333 18.4628Z" fill="white"/>
<path fill-rule="evenodd" clip-rule="evenodd" d="M130.718 26.1725C131.21 26.8388 131.069 27.778 130.403 28.2702L11.5639 116.044C10.8975 116.537 9.95832 116.395 9.46614 115.729C8.97396 115.063 9.11517 114.123 9.78154 113.631L128.62 25.8571C129.287 25.3649 130.226 25.5061 130.718 26.1725Z" fill="#DBA833"/>
</svg>
