<svg width="96" height="94" viewBox="0 0 96 94" fill="none" xmlns="http://www.w3.org/2000/svg">
<path fill-rule="evenodd" clip-rule="evenodd" d="M68.5474 26.9797L73.0414 7.38024L73.0409 7.38013L68.5474 26.9797ZM95.9997 30.1711L93.6447 40.4119L93.6454 40.4121L95.9997 30.1711ZM46.4997 12.2951L58.5164 0.248047L61.6898 3.42942L48.7404 16.4115V42.9404L71.1939 28.8613L75.2935 10.9796L79.6609 11.9887L75.843 28.5917L92.4046 32.4193L91.3946 36.813L73.5676 32.6937L50.7377 47L73.5676 61.3064L91.3946 57.1871L92.4046 61.5808L75.843 65.4084L79.6609 82.0114L75.2935 83.0205L71.1937 65.1381L48.7404 51.0727V77.5886L61.6898 90.5707L58.5164 93.752L46.4997 81.705L34.4829 93.752L31.3095 90.5707L44.259 77.5886V51.0727L21.8056 65.1381L17.7058 83.0205L13.3385 82.0114L17.1563 65.4084L0.594727 61.5808L1.60475 57.1871L19.4317 61.3064L42.2616 47L19.4317 32.6937L1.60475 36.813L0.594727 32.4193L17.1563 28.5917L13.3385 11.9887L17.7058 10.9796L21.8054 28.8613L44.259 42.9404V16.4115L31.3095 3.42942L34.4829 0.248047L46.4997 12.2951Z" fill="#DBA833"/>
</svg>
