<svg width="108" height="111" viewBox="0 0 108 111" fill="none" xmlns="http://www.w3.org/2000/svg">
<g id="gas_pump 1">
<path id="Vector" d="M86.64 4C83.0461 4.27891 79.9542 6.09578 77.715 8.335L68.4713 17.6425L67.4512 16.6225C66.1842 15.3555 64.2877 14.6383 62.3512 15.3475C62.3034 15.3634 62.2716 15.3316 62.2237 15.3475V15.4113L59.2275 16.3675L58.7175 15.7937C57.0202 14.0964 54.8208 13.2437 52.5975 13.2437C50.3742 13.2437 48.1111 14.0964 46.4137 15.7937L38.7 23.5712C37.2258 25.0455 36.7795 27.1572 37.2975 29.0537L11.7337 54.5537C10.5066 55.7809 10.1161 57.4464 10.4587 59.0163C5.85281 63.6541 3 70.1406 3 77.2487C3 86.7873 9.30328 100.972 25.5675 105.872L27.3525 100.007C13.8295 95.9355 9.12 84.0302 9.12 77.2487C9.12 72.077 11.0006 67.3675 14.0925 63.925L29.9025 79.6712C34.1339 83.9027 41.0348 83.9027 45.2663 79.6712L66.0487 58.8887C68.2322 61.0722 71.7544 60.9925 74.0812 58.9525H74.145L76.1212 56.9762C77.4839 55.5817 78.233 53.7648 78.48 51.8125V51.2388L76.6312 37.7875H76.5675C76.6711 35.4048 75.922 33.062 74.2087 31.3487L73.2525 30.3925L74.2725 27.2687L74.3363 27.1412V27.0138C74.655 25.428 74.4159 23.5872 72.9975 22.1687L72.8063 21.9775L81.3487 13.435L82.05 12.67C83.4844 11.2356 85.3809 10.2475 87.0863 10.12H105V4H86.64ZM52.5975 17.26C53.745 17.26 54.8925 17.77 55.8487 18.7262L58.1437 21.0212L59.355 20.6388L63.6262 19.1725H63.7537C63.8175 19.1486 64.2478 19.1566 64.5825 19.4913L70.1287 25.0375C70.3359 25.2447 70.4475 25.7467 70.3838 26.185C70.3838 26.2089 70.3917 26.2248 70.3838 26.2487L68.9812 30.265L68.5987 31.4762L71.34 34.2175C72.352 35.2295 72.7027 36.3372 72.5512 37.8512V38.3612L74.3363 51.43C74.1609 52.6253 73.7944 53.5656 73.1888 54.1712L71.4037 55.8925C70.4714 56.7133 69.5869 56.6894 68.9175 56.02L41.5687 28.6712C40.8994 28.0019 40.8994 27.1094 41.5687 26.44L49.3462 18.7262C50.3025 17.77 51.45 17.26 52.5975 17.26ZM39.6562 32.4963L63.18 56.02L42.3337 76.8025C39.6323 79.5039 35.4727 79.5039 32.7712 76.8025L32.7075 76.675L14.7937 58.825C14.7778 58.8011 14.8097 58.7852 14.7937 58.7612C14.475 58.307 14.5228 57.6297 14.6663 57.4862L39.6562 32.4963ZM40.23 43.78C37.5047 43.78 34.8112 44.8 32.7712 46.84L23.9737 55.5737C22.0294 57.5181 22.0294 60.8331 23.9737 62.7775L32.3888 71.1287C35.2256 73.9656 39.9591 73.9656 42.78 70.9375C42.8039 70.9136 42.8198 70.8977 42.8438 70.8737L53.8088 59.9087C55.7531 57.9644 55.7531 54.7131 53.8088 52.7687L47.88 46.84V46.7762C47.4656 46.3858 46.9955 46.067 46.5412 45.7562C46.4297 45.6367 46.3022 45.5252 46.1587 45.4375C46.1189 45.4136 46.0711 45.3977 46.0312 45.3737C45.9675 45.3498 45.9037 45.3259 45.84 45.31C44.1028 44.3059 42.1664 43.78 40.23 43.78ZM40.2938 47.86C40.7639 47.86 41.2341 47.9556 41.6963 48.0513C37.162 54.1712 37.68 60.865 37.68 60.865C37.7677 61.9886 38.7558 62.8333 39.8794 62.7456C41.003 62.658 41.8477 61.6698 41.76 60.5462C41.76 60.5462 41.3377 55.008 45.33 50.0275L50.94 55.6375C51.442 56.1395 51.442 56.538 50.94 57.04L39.9113 68.0687H39.8475V68.1325C38.5805 69.527 36.4767 69.4792 35.2575 68.26L26.9062 59.9087C26.4042 59.4067 26.4042 59.0083 26.9062 58.5062L35.1937 50.2188L35.64 49.7087C36.8672 48.4816 38.5884 47.86 40.2938 47.86Z" fill="#DBA833"/>
<g id="8 &#208;&#187;&#208;&#181;&#209;&#130;">
<path d="M39.2355 108.24C38.1795 108.24 37.2355 108.112 36.4035 107.856C35.5715 107.6 34.8675 107.24 34.2915 106.776C33.7315 106.312 33.2995 105.768 32.9955 105.144C32.7075 104.52 32.5635 103.824 32.5635 103.056C32.5635 102.128 32.7875 101.328 33.2355 100.656C33.6995 99.968 34.2995 99.44 35.0355 99.072C34.4435 98.704 33.9795 98.232 33.6435 97.656C33.3235 97.08 33.1635 96.408 33.1635 95.64C33.1635 94.712 33.3955 93.904 33.8595 93.216C34.3395 92.512 35.0275 91.96 35.9235 91.56C36.8355 91.16 37.9395 90.96 39.2355 90.96C40.5315 90.96 41.6275 91.16 42.5235 91.56C43.4195 91.944 44.0995 92.488 44.5635 93.192C45.0275 93.88 45.2595 94.688 45.2595 95.616C45.2595 96.384 45.0995 97.056 44.7795 97.632C44.4595 98.208 44.0115 98.688 43.4355 99.072C44.1875 99.424 44.7875 99.952 45.2355 100.656C45.6835 101.344 45.9075 102.152 45.9075 103.08C45.9075 104.088 45.6435 104.984 45.1155 105.768C44.6035 106.536 43.8435 107.144 42.8355 107.592C41.8435 108.024 40.6435 108.24 39.2355 108.24ZM39.2355 105.744C39.8595 105.744 40.4195 105.64 40.9155 105.432C41.4275 105.208 41.8275 104.896 42.1155 104.496C42.4195 104.096 42.5715 103.624 42.5715 103.08C42.5715 102.52 42.4195 102.048 42.1155 101.664C41.8275 101.264 41.4275 100.96 40.9155 100.752C40.4195 100.528 39.8595 100.416 39.2355 100.416C38.6115 100.416 38.0435 100.528 37.5315 100.752C37.0355 100.96 36.6355 101.264 36.3315 101.664C36.0435 102.048 35.8995 102.52 35.8995 103.08C35.8995 103.624 36.0435 104.096 36.3315 104.496C36.6355 104.896 37.0355 105.208 37.5315 105.432C38.0435 105.64 38.6115 105.744 39.2355 105.744ZM39.2355 98.04C39.7635 98.024 40.2435 97.92 40.6755 97.728C41.1235 97.536 41.4755 97.28 41.7315 96.96C42.0035 96.624 42.1395 96.224 42.1395 95.76C42.1395 95.296 42.0115 94.896 41.7555 94.56C41.5155 94.208 41.1715 93.936 40.7235 93.744C40.2915 93.552 39.7955 93.456 39.2355 93.456C38.6755 93.456 38.1715 93.552 37.7235 93.744C37.2915 93.936 36.9475 94.208 36.6915 94.56C36.4515 94.896 36.3315 95.296 36.3315 95.76C36.3315 96.224 36.4515 96.624 36.6915 96.96C36.9475 97.296 37.2915 97.56 37.7235 97.752C38.1715 97.944 38.6755 98.04 39.2355 98.04Z" fill="#DBA833"/>
<path d="M53.7979 108C53.6219 108 53.4778 107.944 53.3659 107.832C53.2539 107.72 53.1979 107.576 53.1979 107.4V105.912C53.1979 105.56 53.3819 105.368 53.7499 105.336C54.2299 105.304 54.6139 105.08 54.9019 104.664C55.1899 104.248 55.3979 103.608 55.5259 102.744C55.6539 101.864 55.7179 100.728 55.7179 99.336V96.096C55.7179 95.936 55.7739 95.8 55.8859 95.688C55.9979 95.576 56.1418 95.52 56.3179 95.52H64.8379C64.9979 95.52 65.1339 95.576 65.2458 95.688C65.3578 95.8 65.4139 95.936 65.4139 96.096V107.424C65.4139 107.584 65.3578 107.72 65.2458 107.832C65.1339 107.944 64.9979 108 64.8379 108H62.8459C62.6699 108 62.5259 107.944 62.4139 107.832C62.3179 107.72 62.2699 107.584 62.2699 107.424V98.064H58.7419V99.672C58.7419 101.208 58.6539 102.512 58.4779 103.584C58.3179 104.64 58.0379 105.496 57.6379 106.152C57.2539 106.792 56.7418 107.264 56.1019 107.568C55.4778 107.856 54.7099 108 53.7979 108Z" fill="#DBA833"/>
<path d="M74.0188 108.24C72.2428 108.24 70.8348 107.728 69.7948 106.704C68.7548 105.68 68.1948 104.224 68.1148 102.336C68.0988 102.176 68.0908 101.976 68.0908 101.736C68.0908 101.48 68.0988 101.28 68.1148 101.136C68.1788 99.936 68.4508 98.896 68.9308 98.016C69.4268 97.136 70.1068 96.464 70.9708 96C71.8348 95.52 72.8508 95.28 74.0188 95.28C75.3148 95.28 76.4028 95.552 77.2828 96.096C78.1628 96.624 78.8268 97.368 79.2748 98.328C79.7228 99.272 79.9468 100.368 79.9468 101.616V102.12C79.9468 102.28 79.8908 102.416 79.7788 102.528C79.6668 102.64 79.5228 102.696 79.3468 102.696H71.3788C71.3788 102.696 71.3788 102.72 71.3788 102.768C71.3788 102.816 71.3788 102.856 71.3788 102.888C71.3948 103.448 71.4988 103.968 71.6908 104.448C71.8988 104.912 72.1948 105.288 72.5788 105.576C72.9788 105.864 73.4508 106.008 73.9948 106.008C74.4428 106.008 74.8188 105.944 75.1228 105.816C75.4268 105.672 75.6748 105.512 75.8668 105.336C76.0588 105.16 76.1948 105.016 76.2748 104.904C76.4188 104.712 76.5308 104.6 76.6108 104.568C76.7068 104.52 76.8428 104.496 77.0188 104.496H79.0828C79.2428 104.496 79.3708 104.544 79.4668 104.64C79.5788 104.736 79.6268 104.856 79.6108 105C79.5948 105.256 79.4588 105.568 79.2028 105.936C78.9628 106.304 78.6108 106.664 78.1468 107.016C77.6828 107.368 77.0988 107.664 76.3948 107.904C75.7068 108.128 74.9148 108.24 74.0188 108.24ZM71.3788 100.68H76.6828V100.608C76.6828 99.984 76.5788 99.44 76.3708 98.976C76.1628 98.512 75.8588 98.144 75.4588 97.872C75.0588 97.6 74.5788 97.464 74.0188 97.464C73.4588 97.464 72.9788 97.6 72.5788 97.872C72.1788 98.144 71.8748 98.512 71.6668 98.976C71.4748 99.44 71.3788 99.984 71.3788 100.608V100.68Z" fill="#DBA833"/>
<path d="M86.3104 108C86.1344 108 85.9904 107.944 85.8784 107.832C85.7824 107.72 85.7344 107.584 85.7344 107.424V98.064H81.8223C81.6464 98.064 81.5023 98.008 81.3904 97.896C81.2943 97.784 81.2463 97.648 81.2463 97.488V96.096C81.2463 95.936 81.2943 95.8 81.3904 95.688C81.5023 95.576 81.6464 95.52 81.8223 95.52H92.7183C92.8943 95.52 93.0384 95.576 93.1504 95.688C93.2624 95.8 93.3184 95.936 93.3184 96.096V97.488C93.3184 97.648 93.2624 97.784 93.1504 97.896C93.0384 98.008 92.8943 98.064 92.7183 98.064H88.8304V107.424C88.8304 107.584 88.7743 107.72 88.6623 107.832C88.5504 107.944 88.4144 108 88.2544 108H86.3104Z" fill="#DBA833"/>
</g>
</g>
</svg>
