<svg width="100" height="100" viewBox="0 0 100 100" fill="none" xmlns="http://www.w3.org/2000/svg">
<g id="gas_station 1" clip-path="url(#clip0_492_880)">
<path id="Vector" d="M18.6251 0C12.7657 0 8.00006 4.76563 8.00006 10.625V88H6.00006C5.93756 88 5.87506 88 5.81256 88C4.78131 88.0938 3.99225 88.9609 4.00006 90V98C4.00006 99.1016 4.8985 100 6.00006 100H72.0001C73.1016 100 74.0001 99.1016 74.0001 98V90C74.0001 88.8984 73.1016 88 72.0001 88H70.0001V54.3125C73.5079 55.1719 76.0001 58.1562 76.0001 62V72C76.0001 78.6484 81.3516 84 88.0001 84C94.6485 84 100 78.6484 100 72V38.8125C100 36.4219 99.0313 34.1562 97.4376 32.5625L75.4376 10.5625L72.5626 13.4375L84.0001 24.875V41.1875C84.0001 43.5781 84.9688 45.8438 86.5626 47.4375L96.0001 56.875V72C96.0001 76.5547 92.5548 80 88.0001 80C83.4454 80 80.0001 76.5547 80.0001 72V62C80.0001 56.0312 75.6954 51.1328 70.0001 50.1875V10.625C70.0001 4.76563 65.2344 0 59.3751 0H18.6251ZM18.6251 4H59.3751C63.1173 4 66.0001 6.88281 66.0001 10.625V88H12.0001V10.625C12.0001 6.88281 14.8829 4 18.6251 4ZM21.8126 8C18.6094 8 16.0001 10.6094 16.0001 13.8125V34.1875C16.0001 37.3906 18.6094 40 21.8126 40H56.1876C59.3907 40 62.0001 37.3906 62.0001 34.1875V13.8125C62.0001 10.6094 59.3907 8 56.1876 8H21.8126ZM21.8126 12H56.1876C56.9844 12 58.0001 13.0156 58.0001 13.8125V34.1875C58.0001 34.9844 56.9844 36 56.1876 36H21.8126C21.0157 36 20.0001 34.9844 20.0001 34.1875V13.8125C20.0001 13.0156 21.0157 12 21.8126 12ZM88.0001 28.875L94.5626 35.4375C95.3673 36.2422 96.0001 37.6016 96.0001 38.8125V51.125L89.4376 44.5625C88.6329 43.7578 88.0001 42.3984 88.0001 41.1875V28.875ZM8.00006 92H70.0001V96H8.00006V92Z" fill="#DBA833"/>
<g id="100">
<path d="M21.8705 79C21.7105 79 21.5665 78.944 21.4385 78.832C21.3265 78.72 21.2705 78.576 21.2705 78.4V66.976L17.9825 69.496C17.8385 69.608 17.6865 69.648 17.5265 69.616C17.3825 69.584 17.2545 69.496 17.1425 69.352L15.7265 67.504C15.6305 67.36 15.5905 67.208 15.6065 67.048C15.6385 66.872 15.7345 66.736 15.8945 66.64L21.4145 62.368C21.5105 62.304 21.5985 62.264 21.6785 62.248C21.7745 62.216 21.8785 62.2 21.9905 62.2H24.9905C25.1505 62.2 25.2865 62.256 25.3985 62.368C25.5265 62.48 25.5905 62.624 25.5905 62.8V78.4C25.5905 78.576 25.5265 78.72 25.3985 78.832C25.2865 78.944 25.1505 79 24.9905 79H21.8705Z" fill="#DBA833"/>
<path d="M35.2881 79.24C34.1361 79.24 33.1361 79.08 32.2881 78.76C31.4401 78.424 30.7361 77.968 30.1761 77.392C29.6321 76.816 29.2161 76.144 28.9281 75.376C28.6401 74.608 28.4721 73.784 28.4241 72.904C28.4081 72.472 28.3921 71.984 28.3761 71.44C28.3761 70.88 28.3761 70.32 28.3761 69.76C28.3921 69.184 28.4081 68.672 28.4241 68.224C28.4721 67.344 28.6401 66.528 28.9281 65.776C29.2321 65.008 29.6641 64.344 30.2241 63.784C30.8001 63.208 31.5041 62.76 32.3361 62.44C33.1841 62.12 34.1681 61.96 35.2881 61.96C36.4241 61.96 37.4081 62.12 38.2401 62.44C39.0721 62.76 39.7681 63.208 40.3281 63.784C40.9041 64.344 41.3441 65.008 41.6481 65.776C41.9521 66.528 42.1201 67.344 42.1521 68.224C42.1841 68.672 42.2001 69.184 42.2001 69.76C42.2161 70.32 42.2161 70.88 42.2001 71.44C42.2001 71.984 42.1841 72.472 42.1521 72.904C42.1201 73.784 41.9521 74.608 41.6481 75.376C41.3601 76.144 40.9361 76.816 40.3761 77.392C39.8321 77.968 39.1361 78.424 38.2881 78.76C37.4561 79.08 36.4561 79.24 35.2881 79.24ZM35.2881 75.76C36.1201 75.76 36.7201 75.496 37.0881 74.968C37.4721 74.424 37.6721 73.696 37.6881 72.784C37.7201 72.32 37.7361 71.832 37.7361 71.32C37.7521 70.808 37.7521 70.296 37.7361 69.784C37.7361 69.272 37.7201 68.8 37.6881 68.368C37.6721 67.488 37.4721 66.776 37.0881 66.232C36.7201 65.688 36.1201 65.408 35.2881 65.392C34.4561 65.408 33.8561 65.688 33.4881 66.232C33.1201 66.776 32.9201 67.488 32.8881 68.368C32.8721 68.8 32.8561 69.272 32.8401 69.784C32.8401 70.296 32.8401 70.808 32.8401 71.32C32.8561 71.832 32.8721 72.32 32.8881 72.784C32.9201 73.696 33.1281 74.424 33.5121 74.968C33.8961 75.496 34.4881 75.76 35.2881 75.76Z" fill="#DBA833"/>
<path d="M51.6006 79.24C50.4486 79.24 49.4486 79.08 48.6006 78.76C47.7526 78.424 47.0486 77.968 46.4886 77.392C45.9446 76.816 45.5286 76.144 45.2406 75.376C44.9526 74.608 44.7846 73.784 44.7366 72.904C44.7206 72.472 44.7046 71.984 44.6886 71.44C44.6886 70.88 44.6886 70.32 44.6886 69.76C44.7046 69.184 44.7206 68.672 44.7366 68.224C44.7846 67.344 44.9526 66.528 45.2406 65.776C45.5446 65.008 45.9766 64.344 46.5366 63.784C47.1126 63.208 47.8166 62.76 48.6486 62.44C49.4966 62.12 50.4806 61.96 51.6006 61.96C52.7366 61.96 53.7206 62.12 54.5526 62.44C55.3846 62.76 56.0806 63.208 56.6406 63.784C57.2166 64.344 57.6566 65.008 57.9606 65.776C58.2646 66.528 58.4326 67.344 58.4646 68.224C58.4966 68.672 58.5126 69.184 58.5126 69.76C58.5286 70.32 58.5286 70.88 58.5126 71.44C58.5126 71.984 58.4966 72.472 58.4646 72.904C58.4326 73.784 58.2646 74.608 57.9606 75.376C57.6726 76.144 57.2486 76.816 56.6886 77.392C56.1446 77.968 55.4486 78.424 54.6006 78.76C53.7686 79.08 52.7686 79.24 51.6006 79.24ZM51.6006 75.76C52.4326 75.76 53.0326 75.496 53.4006 74.968C53.7846 74.424 53.9846 73.696 54.0006 72.784C54.0326 72.32 54.0486 71.832 54.0486 71.32C54.0646 70.808 54.0646 70.296 54.0486 69.784C54.0486 69.272 54.0326 68.8 54.0006 68.368C53.9846 67.488 53.7846 66.776 53.4006 66.232C53.0326 65.688 52.4326 65.408 51.6006 65.392C50.7686 65.408 50.1686 65.688 49.8006 66.232C49.4326 66.776 49.2326 67.488 49.2006 68.368C49.1846 68.8 49.1686 69.272 49.1526 69.784C49.1526 70.296 49.1526 70.808 49.1526 71.32C49.1686 71.832 49.1846 72.32 49.2006 72.784C49.2326 73.696 49.4406 74.424 49.8246 74.968C50.2086 75.496 50.8006 75.76 51.6006 75.76Z" fill="#DBA833"/>
</g>
</g>
<defs>
<clipPath id="clip0_492_880">
<rect width="100" height="100" fill="white"/>
</clipPath>
</defs>
</svg>
