<svg width="114" height="114" viewBox="0 0 114 114" fill="none" xmlns="http://www.w3.org/2000/svg">
<g id="synchronize 1">
<path id="Vector" d="M57 11.4C31.8399 11.4 11.4 31.8399 11.4 57C11.3911 57.8194 11.8186 58.5853 12.5311 59.0039C13.2436 59.4136 14.1164 59.4136 14.8289 59.0039C15.5414 58.5853 15.9689 57.8194 15.96 57C15.96 34.3069 34.3069 15.96 57 15.96C71.2411 15.96 83.7366 23.2097 91.1021 34.2H75.24C74.4207 34.1911 73.6547 34.6186 73.2361 35.3311C72.8264 36.0436 72.8264 36.9164 73.2361 37.6289C73.6547 38.3414 74.4207 38.7689 75.24 38.76H98.04V15.96C98.049 15.3455 97.8085 14.7488 97.3721 14.3124C96.9357 13.876 96.339 13.6355 95.7244 13.6444C94.4686 13.6711 93.4622 14.7042 93.48 15.96V29.6667C85.1527 18.5785 71.9091 11.4 57 11.4ZM100.284 54.6844C99.0286 54.7111 98.0222 55.7442 98.04 57C98.04 79.6931 79.6932 98.04 57 98.04C42.7589 98.04 30.2546 90.7903 22.898 79.8H38.76C39.5794 79.8178 40.3454 79.3814 40.7639 78.6778C41.1736 77.9653 41.1736 77.0836 40.7639 76.3711C40.3454 75.6675 39.5794 75.2311 38.76 75.24H19.2554C18.9614 75.1866 18.6675 75.1866 18.3736 75.24H15.96V98.04C15.9511 98.8594 16.3786 99.6253 17.0911 100.044C17.8036 100.454 18.6764 100.454 19.3889 100.044C20.1014 99.6253 20.5289 98.8594 20.52 98.04V84.3244C28.8385 95.4127 42.091 102.6 57 102.6C82.1602 102.6 102.6 82.1602 102.6 57C102.609 56.3855 102.368 55.7888 101.932 55.3524C101.496 54.916 100.899 54.6755 100.284 54.6844Z" fill="#DBA833"/>
<g id="&#208;&#145;/&#208;&#163;">
<path d="M36.6903 68C36.5143 68 36.3703 67.944 36.2583 67.832C36.1463 67.72 36.0903 67.576 36.0903 67.4V51.8C36.0903 51.624 36.1463 51.48 36.2583 51.368C36.3703 51.256 36.5143 51.2 36.6903 51.2H48.1863C48.3623 51.2 48.5063 51.256 48.6183 51.368C48.7463 51.48 48.8103 51.624 48.8103 51.8V54.2C48.8103 54.376 48.7463 54.528 48.6183 54.656C48.5063 54.768 48.3623 54.824 48.1863 54.824H40.3863V57.68H43.7463C45.6663 57.68 47.1783 58.136 48.2823 59.048C49.3863 59.96 49.9383 61.2 49.9383 62.768C49.9383 63.504 49.8023 64.192 49.5303 64.832C49.2583 65.456 48.8583 66.008 48.3303 66.488C47.8183 66.952 47.1783 67.32 46.4103 67.592C45.6423 67.864 44.7543 68 43.7463 68H36.6903ZM40.3863 64.88H43.3623C43.8263 64.88 44.2103 64.784 44.5143 64.592C44.8343 64.384 45.0743 64.12 45.2343 63.8C45.3943 63.464 45.4743 63.112 45.4743 62.744C45.4743 62.184 45.2903 61.704 44.9223 61.304C44.5703 60.904 44.0503 60.704 43.3623 60.704H40.3863V64.88Z" fill="#DBA833"/>
<path d="M51.2638 70.016C51.1198 70.016 50.9918 69.96 50.8798 69.848C50.7838 69.752 50.7358 69.64 50.7358 69.512C50.7358 69.432 50.7598 69.352 50.8078 69.272L58.9198 49.712C58.9838 49.584 59.0798 49.456 59.2078 49.328C59.3358 49.2 59.5278 49.136 59.7838 49.136H61.9438C62.0718 49.136 62.1838 49.192 62.2798 49.304C62.3918 49.4 62.4478 49.512 62.4478 49.64C62.4478 49.704 62.4318 49.784 62.3998 49.88L54.2158 69.44C54.1838 69.552 54.0958 69.672 53.9518 69.8C53.8238 69.944 53.6318 70.016 53.3758 70.016H51.2638Z" fill="#DBA833"/>
<path d="M66.1961 68C66.0201 68 65.8761 67.944 65.7641 67.832C65.6521 67.72 65.5961 67.576 65.5961 67.4V64.856C65.5961 64.68 65.6521 64.536 65.7641 64.424C65.8761 64.312 66.0201 64.256 66.1961 64.256H67.1081C67.5401 64.256 67.9081 64.176 68.2121 64.016C68.5161 63.84 68.7881 63.584 69.0281 63.248C69.2841 62.912 69.5321 62.464 69.7721 61.904L74.2361 51.704C74.3001 51.528 74.3961 51.4 74.5241 51.32C74.6521 51.24 74.7961 51.2 74.9561 51.2H78.1001C78.2441 51.2 78.3641 51.256 78.4601 51.368C78.5561 51.464 78.6041 51.576 78.6041 51.704C78.6041 51.768 78.5961 51.84 78.5801 51.92C78.5641 52 78.5401 52.072 78.5081 52.136L73.7321 63.104C73.3321 64.016 72.9401 64.784 72.5561 65.408C72.1881 66.032 71.7801 66.536 71.3321 66.92C70.8841 67.304 70.3481 67.584 69.7241 67.76C69.1161 67.92 68.3641 68 67.4681 68H66.1961ZM69.5801 63.68L63.2681 51.944C63.2361 51.88 63.2201 51.808 63.2201 51.728C63.2201 51.6 63.2761 51.48 63.3881 51.368C63.5001 51.256 63.6361 51.2 63.7961 51.2H67.1081C67.2841 51.2 67.4201 51.248 67.5161 51.344C67.6281 51.424 67.7241 51.544 67.8041 51.704L71.7881 59.48L69.5801 63.68Z" fill="#DBA833"/>
</g>
</g>
</svg>
