<svg width="116" height="93" viewBox="0 0 116 93" fill="none" xmlns="http://www.w3.org/2000/svg">
<g id="Group 95">
<path id="Subtract" fill-rule="evenodd" clip-rule="evenodd" d="M60.5 79.2727H17.6429V66.0455H4.07143V70.4545H0.5V40.1818H4.07143V44.5909H17.6429V31.3636H26.2143V4.31818H21.9286V0.5H51.2143V4.31818H46.9286V31.3636H60.5V28.8636C60.5 22.9242 65.2544 18.1364 70.8571 18.1364H105.143C110.746 18.1364 115.5 22.9242 115.5 28.8636V81.7727C115.5 87.7122 110.746 92.5 105.143 92.5H70.8571C65.2544 92.5 60.5 87.7122 60.5 81.7727V79.2727ZM43.3571 4.31818H29.7857V31.3636H43.3571V4.31818ZM98.3571 74.8636H64.0714V81.7727C64.0714 85.5774 66.9885 88.6818 70.8571 88.6818H105.143C109.012 88.6818 111.929 85.5774 111.929 81.7727V28.8636C111.929 25.059 109.012 21.9545 105.143 21.9545H70.8571C66.9885 21.9545 64.0714 25.059 64.0714 28.8636V35.7727H98.3571V39.5909H64.0714V53.4091H98.3571V57.2273H64.0714V71.0455H98.3571V74.8636ZM60.5 35.1818H21.2143V75.4545H60.5V35.1818ZM17.6429 48.4091H4.07143V62.2273H17.6429V48.4091Z" fill="#DBA833"/>
<g id="NEW">
<path d="M69.0845 14C68.9512 14 68.8378 13.9533 68.7445 13.86C68.6512 13.7667 68.6045 13.6533 68.6045 13.52V0.500001C68.6045 0.353334 68.6512 0.233333 68.7445 0.14C68.8378 0.0466666 68.9512 0 69.0845 0H70.6245C70.8112 0 70.9445 0.0466666 71.0245 0.14C71.1178 0.22 71.1778 0.28 71.2045 0.320001L76.9645 9.28V0.500001C76.9645 0.353334 77.0045 0.233333 77.0845 0.14C77.1778 0.0466666 77.2978 0 77.4445 0H79.1245C79.2712 0 79.3912 0.0466666 79.4845 0.14C79.5778 0.233333 79.6245 0.353334 79.6245 0.500001V13.5C79.6245 13.6467 79.5778 13.7667 79.4845 13.86C79.3912 13.9533 79.2778 14 79.1445 14H77.5845C77.3978 14 77.2645 13.9533 77.1845 13.86C77.1045 13.7667 77.0445 13.7067 77.0045 13.68L71.2645 4.92V13.52C71.2645 13.6533 71.2178 13.7667 71.1245 13.86C71.0312 13.9533 70.9112 14 70.7645 14H69.0845Z" fill="#DBA833"/>
<path d="M83.2251 14C83.0918 14 82.9784 13.9533 82.8851 13.86C82.7918 13.7667 82.7451 13.6533 82.7451 13.52V0.500001C82.7451 0.353334 82.7918 0.233333 82.8851 0.14C82.9784 0.0466666 83.0918 0 83.2251 0H92.0251C92.1718 0 92.2918 0.0466666 92.3851 0.14C92.4785 0.233333 92.5251 0.353334 92.5251 0.500001V1.82C92.5251 1.95333 92.4785 2.06667 92.3851 2.16C92.2918 2.25333 92.1718 2.3 92.0251 2.3H85.4451V5.84H91.5851C91.7318 5.84 91.8518 5.88667 91.9451 5.98C92.0385 6.06 92.0851 6.17333 92.0851 6.32V7.56C92.0851 7.70667 92.0385 7.82667 91.9451 7.92C91.8518 8 91.7318 8.04 91.5851 8.04H85.4451V11.7H92.1851C92.3318 11.7 92.4518 11.7467 92.5451 11.84C92.6385 11.9333 92.6851 12.0533 92.6851 12.2V13.52C92.6851 13.6533 92.6385 13.7667 92.5451 13.86C92.4518 13.9533 92.3318 14 92.1851 14H83.2251Z" fill="#DBA833"/>
<path d="M97.4865 14C97.2865 14 97.1265 13.9467 97.0065 13.84C96.8999 13.72 96.8265 13.5733 96.7865 13.4L94.4065 0.580001C94.4065 0.540001 94.3999 0.506667 94.3865 0.48C94.3865 0.453333 94.3865 0.433334 94.3865 0.420001C94.3865 0.300001 94.4265 0.200001 94.5065 0.120001C94.5999 0.0400003 94.6999 0 94.8065 0H96.5665C96.8999 0 97.0865 0.133333 97.1265 0.400001L98.7865 9.46L100.587 3.6C100.627 3.49333 100.693 3.38667 100.787 3.28C100.893 3.16 101.047 3.1 101.247 3.1H102.327C102.54 3.1 102.693 3.16 102.787 3.28C102.88 3.38667 102.94 3.49333 102.967 3.6L104.787 9.44L106.447 0.400001C106.487 0.133333 106.673 0 107.007 0H108.767C108.873 0 108.967 0.0400003 109.047 0.120001C109.127 0.200001 109.167 0.300001 109.167 0.420001C109.167 0.433334 109.167 0.453333 109.167 0.48C109.167 0.506667 109.16 0.540001 109.147 0.580001L106.767 13.4C106.74 13.5733 106.667 13.72 106.547 13.84C106.427 13.9467 106.267 14 106.067 14H104.727C104.527 14 104.367 13.9467 104.247 13.84C104.14 13.7333 104.067 13.62 104.027 13.5L101.787 6.82L99.5465 13.5C99.4932 13.62 99.4132 13.7333 99.3065 13.84C99.1999 13.9467 99.0399 14 98.8265 14H97.4865Z" fill="#DBA833"/>
</g>
</g>
</svg>
