<svg width="102" height="102" viewBox="0 0 102 102" fill="none" xmlns="http://www.w3.org/2000/svg">
<path id="Vector" d="M62.4078 0.0141829C61.5262 -0.0510285 60.6213 0.107522 59.7834 0.512923L50.9967 4.71969L42.2056 0.508586H42.2013C39.97 -0.563008 37.2705 0.111576 35.7847 2.09154V2.09588L29.9413 9.94128L20.2065 10.3273H20.2022C17.7367 10.4282 15.6571 12.2882 15.2637 14.7422L13.708 24.4177L5.27038 29.3184C3.13078 30.5579 2.1401 33.1731 2.92179 35.5331L6.0202 44.8357L0.805911 53.1148C-0.51555 55.2127 -0.185751 57.9938 1.60314 59.7155L8.63165 66.4984L7.83874 76.2694C7.63808 78.7488 9.22054 81.0481 11.5835 81.7425H11.5879L20.9477 84.4574L24.7572 93.4824V93.4867C25.726 95.7643 28.1852 97.1002 30.6265 96.5702L40.1587 94.6056L47.6914 100.812V100.807C48.6474 101.597 49.8311 102 51.001 102C52.1754 102 53.3528 101.595 54.3062 100.807L61.8389 94.6013L71.3712 96.5659C73.8077 97.0919 76.2728 95.7653 77.2405 93.4781L81.0499 84.4574L90.4055 81.7425H90.4098C92.7793 81.0521 94.359 78.7451 94.1589 76.2694L93.366 66.4941L100.395 59.7112C102.181 57.9892 102.518 55.2097 101.196 53.1105L95.9818 44.8314L99.0802 35.5288V35.5245C99.8526 33.1699 98.873 30.5547 96.7316 29.3141L88.2896 24.4134L86.7382 14.7335V14.7292C86.3346 12.2854 84.2568 10.4282 81.7911 10.3273L72.0564 9.94128L66.2129 2.10022C65.4702 1.10357 64.4197 0.435718 63.2783 0.152963C62.9929 0.0822738 62.7016 0.03592 62.4078 0.0141829ZM40.0467 4.29901C40.1527 4.30999 40.2596 4.34115 40.3612 4.39008L50.9967 9.48157L61.6321 4.39008H61.6364C62.0363 4.1966 62.5161 4.31137 62.7913 4.68065L69.8543 14.1611L81.6188 14.6251C82.0832 14.6441 82.4419 14.9667 82.5194 15.4361L84.394 27.1196L94.5985 33.0438C94.993 33.2724 95.1679 33.7296 95.0251 34.1714L91.2846 45.4039L97.5848 55.4134C97.8283 55.7999 97.7719 56.2849 97.4383 56.606L88.9403 64.807L89.897 76.6163C89.9352 77.0894 89.6706 77.4783 89.2204 77.6094L77.9084 80.8925L73.3104 91.7953C73.1263 92.2304 72.6905 92.4548 72.2675 92.3635L72.2589 92.3591L60.7056 89.9782L51.5957 97.481C51.415 97.6303 51.2166 97.6978 51.001 97.6978C50.7808 97.6978 50.5801 97.6325 50.402 97.4853L41.2921 89.9825L29.7387 92.3635H29.7258C29.3032 92.4552 28.8746 92.2313 28.6873 91.791V91.7997L24.0892 80.8925L12.7815 77.6138C12.3336 77.4823 12.063 77.0856 12.1007 76.6206L13.0573 64.807L4.55934 56.6103V56.606C4.22569 56.285 4.16775 55.8067 4.41282 55.4177L10.7174 45.4082L6.97256 34.1714C6.82757 33.7336 7.00145 33.2785 7.39919 33.0481H7.40349L17.6037 27.124L19.4825 15.4274C19.5567 14.9649 19.9119 14.6457 20.3746 14.6251L32.139 14.1611L39.1977 4.68499C39.4099 4.40226 39.7285 4.26608 40.0467 4.29901ZM23.3739 41.0063C17.196 41.0063 16.3109 45.4464 16.3109 46.7786C16.3109 54.1062 28.0064 50.7755 28.0064 55.6606C28.0064 55.8826 27.7849 58.5489 23.8134 58.5489C18.9594 58.5489 18.9611 54.9953 18.9611 54.3291V54.5503H15.6516C15.6516 56.1046 16.3117 61.4329 23.8134 61.4329C24.696 61.4329 31.5357 60.9914 31.5357 55.2182C31.5357 47.8906 19.8445 50.9993 19.8445 46.3363C19.8445 45.8922 20.0643 43.8946 23.3739 43.8946C26.9041 43.8946 27.5668 45.8931 27.5668 47.2253H30.8764C30.8764 45.8931 30.2136 41.0063 23.3739 41.0063ZM41.0249 41.2275L33.5223 60.7694H37.0517L38.8185 55.6606H46.5408L48.5274 60.7694H52.0568L44.5542 41.2275H41.0249ZM55.1466 41.2275V60.5482H68.3848V57.6599H58.4561V41.2275H55.1466ZM72.1339 41.2275V60.7694H86.2556V57.881H75.4435V52.1087H85.1524V49.2203H75.4435V44.1158H86.0358V41.2275H72.1339ZM42.7874 44.5582L45.6574 52.9977H39.7019L42.7874 44.5582Z" fill="#DBA833"/>
</svg>
