<svg width="104" height="103" viewBox="0 0 104 103" fill="none" xmlns="http://www.w3.org/2000/svg">
<g id="Group 94">
<path id="Subtract" fill-rule="evenodd" clip-rule="evenodd" d="M26.208 34.4982C25.0982 32.8343 25.0983 32.8342 25.0982 32.8343L28.208 30.7601V43.2187C28.2082 43.5933 28.3088 43.9608 28.4992 44.2831C28.4993 44.283 28.5007 44.2847 28.5035 44.2882C28.5154 44.3031 28.5537 44.3509 28.6325 44.4321C28.7412 44.544 28.8773 44.6687 29.0224 44.7927C29.1323 44.8867 29.2378 44.9721 29.3261 45.0416C29.433 45.0765 29.5626 45.1169 29.7017 45.1563C29.8854 45.2082 30.0646 45.2523 30.218 45.2806C30.3292 45.3012 30.3902 45.3065 30.4093 45.3082C30.4137 45.3086 30.4159 45.3088 30.4159 45.3089C30.7899 45.2886 31.1516 45.1683 31.4634 44.9605L52.7705 30.7558L52.7706 43.2015C52.7708 43.2015 52.7713 43.2041 52.7723 43.2093C52.777 43.2338 52.793 43.3175 52.8463 43.4702C52.9189 43.6783 53.0266 43.9189 53.1519 44.1647C53.2458 44.3488 53.341 44.5192 53.4232 44.6598C53.5638 44.742 53.7342 44.8372 53.9183 44.9311C54.1641 45.0564 54.4047 45.1641 54.6127 45.2367C54.7654 45.2899 54.8489 45.306 54.8734 45.3107C54.8787 45.3117 54.8812 45.3122 54.8812 45.3125H73.9682C74.5236 45.3124 75.0561 45.0918 75.4488 44.6991C75.8414 44.3065 76.0621 43.7738 76.0622 43.2185V10.4687C76.0622 9.58771 76.3792 8.72162 77.0295 8.0714C77.6797 7.4212 78.5458 7.10413 79.4268 7.10413H95.8018C96.6828 7.10413 97.5489 7.4212 98.1991 8.0714C98.8493 8.72162 99.1663 9.58771 99.1663 10.4687V95.0729C99.1663 95.9539 98.8493 96.82 98.1991 97.4702C97.5489 98.1204 96.6828 98.4375 95.8018 98.4375H11.1976C10.3166 98.4375 9.4505 98.1204 8.80029 97.4702C8.15008 96.82 7.83301 95.9535 7.83301 95.0725C7.83301 95.0728 7.83301 95.0729 9.83301 95.0729L7.83301 95.0725L7.83304 46.129C7.83581 45.6149 7.99603 45.1927 8.10503 44.9504C8.22532 44.683 8.36772 44.4527 8.48161 44.2845C8.59929 44.1107 8.71291 43.9645 8.79572 43.8629C8.838 43.811 8.87448 43.768 8.90237 43.7358L8.92466 43.7102L8.93798 43.6951L8.95068 43.6809L8.95567 43.6754L8.95879 43.6719C8.95902 43.6717 8.95971 43.6709 10.4407 45.0151L8.95971 43.6709L9.12549 43.4883L25.0982 32.8343L26.208 34.4982ZM56.958 41.125H71.8747V10.4687C71.8747 6.3463 75.3044 2.91663 79.4268 2.91663H95.8018C99.9242 2.91663 103.354 6.3463 103.354 10.4687V95.0729C103.354 99.1953 99.9242 102.625 95.8018 102.625H11.1976C7.07518 102.625 3.64551 99.1953 3.64551 95.0729V46.1313C3.64661 45.7386 3.79004 45.1428 4.13789 44.3641C4.47425 43.6111 4.93975 42.8228 5.43335 42.0862C5.92316 41.3553 6.41669 40.7106 6.78923 40.2475C6.97164 40.0207 7.12296 39.8401 7.2278 39.7171L29.1401 25.1019C29.4554 24.8918 29.8219 24.7711 30.2004 24.7529C30.579 24.7346 30.9554 24.8194 31.2895 24.9982C31.6236 25.177 31.903 25.4432 32.0977 25.7682C32.2924 26.0932 32.3953 26.4653 32.3955 26.8441V39.3066L53.7029 25.1017C54.0182 24.8917 54.3846 24.7711 54.7629 24.7529C55.1415 24.7346 55.5179 24.8194 55.852 24.9982C56.1861 25.177 56.4655 25.4432 56.6602 25.7682C56.8549 26.0932 56.9579 26.4653 56.958 26.8441V41.125ZM22.7497 58.2291C22.7497 57.8217 23.0715 57.5 23.4788 57.5H28.9372C29.3446 57.5 29.6663 57.8217 29.6663 58.2291V63.6875C29.6663 64.0948 29.3446 64.4166 28.9372 64.4166H23.4788C23.0715 64.4166 22.7497 64.0949 22.7497 63.6875V58.2291ZM50.0413 58.2291C50.0413 57.8217 50.3631 57.5 50.7705 57.5H56.2288C56.6362 57.5 56.958 57.8217 56.958 58.2291V63.6875C56.958 64.0948 56.6362 64.4166 56.2288 64.4166H50.7705C50.3631 64.4166 50.0413 64.0948 50.0413 63.6875V58.2291ZM77.333 63.6875V58.2291C77.333 57.8217 77.6548 57.5 78.0622 57.5H83.5205C83.9279 57.5 84.2497 57.8217 84.2497 58.2291V63.6875C84.2497 64.0949 83.9279 64.4166 83.5205 64.4166H78.0622C77.6548 64.4166 77.333 64.0949 77.333 63.6875ZM22.7497 80.0625C22.7497 79.6551 23.0715 79.3333 23.4788 79.3333H28.9372C29.3446 79.3333 29.6663 79.6551 29.6663 80.0625V85.5208C29.6663 85.9282 29.3446 86.25 28.9372 86.25H23.4788C23.0715 86.25 22.7497 85.9282 22.7497 85.5208V80.0625ZM50.0413 80.0625C50.0413 79.6551 50.3631 79.3333 50.7705 79.3333H56.2288C56.6362 79.3333 56.958 79.6551 56.958 80.0625V85.5208C56.958 85.9282 56.6362 86.25 56.2288 86.25H50.7705C50.3631 86.25 50.0413 85.9282 50.0413 85.5208V80.0625ZM77.333 85.5208V80.0625C77.333 79.6551 77.6548 79.3333 78.0622 79.3333H83.5205C83.9279 79.3333 84.2497 79.6551 84.2497 80.0625V85.5208C84.2497 85.9282 83.9279 86.25 83.5205 86.25H78.0622C77.6548 86.25 77.333 85.9282 77.333 85.5208Z" fill="#DBA833"/>
<g id="TOP">
<path d="M5.126 17C4.97933 17 4.85467 16.9487 4.752 16.846C4.64933 16.7433 4.598 16.6187 4.598 16.472V4.30601H0.528C0.381333 4.30601 0.256667 4.25467 0.154 4.152C0.0513333 4.04934 0 3.92467 0 3.77801V2.15001C0 1.98867 0.0513333 1.85667 0.154 1.75401C0.256667 1.65134 0.381333 1.6 0.528 1.6H11.748C11.9093 1.6 12.0413 1.65134 12.144 1.75401C12.2467 1.85667 12.298 1.98867 12.298 2.15001V3.77801C12.298 3.92467 12.2467 4.04934 12.144 4.152C12.0413 4.25467 11.9093 4.30601 11.748 4.30601H7.7V16.472C7.7 16.6187 7.64867 16.7433 7.546 16.846C7.44333 16.9487 7.31133 17 7.15 17H5.126Z" fill="#DBA833"/>
<path d="M20.169 17.22C18.8637 17.22 17.7417 17.0073 16.803 16.582C15.8643 16.142 15.131 15.4747 14.603 14.58C14.075 13.6707 13.789 12.5413 13.745 11.192C13.7303 10.5613 13.723 9.93801 13.723 9.32201C13.723 8.70601 13.7303 8.07534 13.745 7.43001C13.789 6.09534 14.0823 4.98067 14.625 4.08601C15.1677 3.19134 15.9083 2.51667 16.847 2.06201C17.8003 1.60734 18.9077 1.38 20.169 1.38C21.4303 1.38 22.5377 1.60734 23.491 2.06201C24.4443 2.51667 25.1923 3.19134 25.735 4.08601C26.2777 4.98067 26.571 6.09534 26.615 7.43001C26.6444 8.07534 26.659 8.70601 26.659 9.32201C26.659 9.93801 26.6444 10.5613 26.615 11.192C26.571 12.5413 26.285 13.6707 25.757 14.58C25.229 15.4747 24.4883 16.142 23.535 16.582C22.5963 17.0073 21.4743 17.22 20.169 17.22ZM20.169 14.69C21.1223 14.69 21.8997 14.4113 22.501 13.854C23.1023 13.282 23.425 12.358 23.469 11.082C23.4983 10.4367 23.513 9.84267 23.513 9.3C23.513 8.74267 23.4983 8.14867 23.469 7.51801C23.4397 6.66734 23.2783 5.978 22.985 5.45C22.7063 4.90734 22.325 4.51867 21.841 4.28401C21.357 4.03467 20.7997 3.91001 20.169 3.91001C19.553 3.91001 19.003 4.03467 18.519 4.28401C18.035 4.51867 17.6463 4.90734 17.353 5.45C17.0743 5.978 16.9203 6.66734 16.891 7.51801C16.8763 8.14867 16.869 8.74267 16.869 9.3C16.869 9.84267 16.8763 10.4367 16.891 11.082C16.935 12.358 17.2577 13.282 17.859 13.854C18.4603 14.4113 19.2303 14.69 20.169 14.69Z" fill="#DBA833"/>
<path d="M30.0759 17C29.9292 17 29.8046 16.9487 29.7019 16.846C29.5992 16.7433 29.5479 16.6187 29.5479 16.472V2.15001C29.5479 1.98867 29.5992 1.85667 29.7019 1.75401C29.8046 1.65134 29.9292 1.6 30.0759 1.6H35.9719C37.1159 1.6 38.1132 1.78334 38.9639 2.15001C39.8146 2.50201 40.4746 3.04467 40.9439 3.77801C41.4132 4.49667 41.6479 5.39867 41.6479 6.484C41.6479 7.584 41.4132 8.49334 40.9439 9.21201C40.4746 9.91601 39.8146 10.444 38.9639 10.796C38.1132 11.148 37.1159 11.324 35.9719 11.324H32.6939V16.472C32.6939 16.6187 32.6426 16.7433 32.5399 16.846C32.4519 16.9487 32.3272 17 32.1659 17H30.0759ZM32.6499 8.88201H35.8619C36.7126 8.88201 37.3652 8.684 37.8199 8.288C38.2746 7.87734 38.5019 7.276 38.5019 6.484C38.5019 5.75067 38.2892 5.16401 37.8639 4.724C37.4386 4.26934 36.7712 4.042 35.8619 4.042H32.6499V8.88201Z" fill="#DBA833"/>
</g>
<path id="Arrow 3 (Stroke)" fill-rule="evenodd" clip-rule="evenodd" d="M44.8075 10.4853L54.3534 0.939339C54.9392 0.353552 55.889 0.353552 56.4748 0.939339L66.0207 10.4853C66.6065 11.0711 66.6065 12.0208 66.0207 12.6066C65.4349 13.1924 64.4852 13.1924 63.8994 12.6066L56.9141 5.62132L56.9141 17C56.9141 17.8284 56.2425 18.5 55.4141 18.5C54.5857 18.5 53.9141 17.8284 53.9141 17L53.9141 5.62132L46.9288 12.6066C46.343 13.1924 45.3933 13.1924 44.8075 12.6066C44.2217 12.0208 44.2217 11.0711 44.8075 10.4853Z" fill="#DBA833"/>
</g>
</svg>
